<mxfile host="app.diagrams.net" modified="2023-08-14T10:52:08.681Z" agent="Mozilla/5.0 (Windows NT 10.0; Win64; x64) AppleWebKit/537.36 (KHTML, like Gecko) Chrome/115.0.0.0 Safari/537.36 Edg/115.0.1901.203" etag="dIIxu3ap7qG5t3qllKA2" version="21.6.8" type="github">
  <diagram name="第 1 页" id="lozCme-h0uaAOeq1gNzG">
    <mxGraphModel dx="842" dy="461" grid="1" gridSize="10" guides="1" tooltips="1" connect="1" arrows="1" fold="1" page="1" pageScale="1" pageWidth="827" pageHeight="1169" math="0" shadow="0">
      <root>
        <mxCell id="0" />
        <mxCell id="1" parent="0" />
        <mxCell id="3D8_AaA1iPGgbqS8_DOt-58" value="" style="rounded=1;whiteSpace=wrap;html=1;" vertex="1" parent="1">
          <mxGeometry x="930" y="504.5" width="245" height="449" as="geometry" />
        </mxCell>
        <mxCell id="3D8_AaA1iPGgbqS8_DOt-59" style="edgeStyle=orthogonalEdgeStyle;rounded=0;orthogonalLoop=1;jettySize=auto;html=1;entryX=0;entryY=0.334;entryDx=0;entryDy=0;entryPerimeter=0;exitX=0.999;exitY=0.133;exitDx=0;exitDy=0;exitPerimeter=0;" edge="1" parent="1" source="3D8_AaA1iPGgbqS8_DOt-58" target="3D8_AaA1iPGgbqS8_DOt-36">
          <mxGeometry relative="1" as="geometry">
            <mxPoint x="1260.2799999999997" y="565.1999999999998" as="targetPoint" />
            <mxPoint x="1179" y="565" as="sourcePoint" />
          </mxGeometry>
        </mxCell>
        <mxCell id="3D8_AaA1iPGgbqS8_DOt-72" value="aiReq" style="edgeLabel;html=1;align=center;verticalAlign=middle;resizable=0;points=[];" vertex="1" connectable="0" parent="3D8_AaA1iPGgbqS8_DOt-59">
          <mxGeometry x="0.1636" y="1" relative="1" as="geometry">
            <mxPoint x="-13" as="offset" />
          </mxGeometry>
        </mxCell>
        <mxCell id="3D8_AaA1iPGgbqS8_DOt-60" value="拿到aiResp,塞进&lt;b&gt;logger&lt;/b&gt;&lt;br&gt;logger{&lt;br&gt;&amp;nbsp; //其他字段&lt;br&gt;&amp;nbsp; &lt;font color=&quot;#ff0000&quot;&gt;ContextFeature string&lt;br&gt;}&lt;/font&gt;" style="rounded=1;whiteSpace=wrap;html=1;align=left;" vertex="1" parent="1">
          <mxGeometry x="970" y="557.5" width="132.5" height="90" as="geometry" />
        </mxCell>
        <mxCell id="3D8_AaA1iPGgbqS8_DOt-36" value="" style="rounded=1;whiteSpace=wrap;html=1;fontSize=12;glass=0;strokeWidth=1;shadow=0;fontFamily=Helvetica;fillColor=#cdeb8b;strokeColor=#36393d;" vertex="1" parent="1">
          <mxGeometry x="1270" y="485" width="640" height="240" as="geometry" />
        </mxCell>
        <mxCell id="3D8_AaA1iPGgbqS8_DOt-34" value="&lt;div style=&quot;font-size: 9.8pt;&quot;&gt;&lt;div style=&quot;font-size: 9.8pt;&quot;&gt;type &lt;font color=&quot;#ff66ff&quot;&gt;aiProtoResp&lt;/font&gt; struct {&lt;br&gt;&amp;nbsp; &amp;nbsp; &amp;nbsp; &amp;nbsp; &amp;nbsp;Code           interface{}&amp;nbsp;&lt;br&gt;&amp;nbsp; &amp;nbsp; &amp;nbsp; &amp;nbsp; &amp;nbsp;Data           []*aiProtoRespItem&amp;nbsp;&lt;br&gt;&amp;nbsp; &amp;nbsp; &amp;nbsp; &amp;nbsp; &amp;nbsp;&lt;font color=&quot;#ff0000&quot;&gt;ContextFeature&lt;/font&gt; string&lt;br&gt;&amp;nbsp; &amp;nbsp; &amp;nbsp; &amp;nbsp; &amp;nbsp;Sid            string&lt;br&gt;}&lt;/div&gt;&lt;/div&gt;&lt;div style=&quot;font-size: 9.8pt;&quot;&gt;&lt;br&gt;&lt;/div&gt;" style="rounded=0;whiteSpace=wrap;html=1;align=left;" vertex="1" parent="1">
          <mxGeometry x="1290" y="540" width="210" height="130" as="geometry" />
        </mxCell>
        <mxCell id="3D8_AaA1iPGgbqS8_DOt-44" value="&lt;font style=&quot;border-color: var(--border-color); text-align: left; font-size: 13.0667px;&quot; color=&quot;#ff0000&quot;&gt;contextFeature&lt;/font&gt;&amp;nbsp;&lt;span style=&quot;border-color: var(--border-color); text-align: left; background-color: initial; font-size: 9.8pt;&quot;&gt;:= map[string]interface{}{&amp;nbsp; &amp;nbsp; &amp;nbsp;//例子&lt;/span&gt;&lt;br style=&quot;border-color: var(--border-color); text-align: left;&quot;&gt;&lt;div style=&quot;border-color: var(--border-color); text-align: left; font-size: 9.8pt;&quot;&gt;&amp;nbsp; &amp;nbsp; &amp;nbsp;&quot;a&quot;:&amp;nbsp; xxx,&lt;/div&gt;&lt;div style=&quot;border-color: var(--border-color); text-align: left; font-size: 9.8pt;&quot;&gt;&amp;nbsp; &amp;nbsp; &amp;nbsp;&quot;b&quot;:&amp;nbsp; xxx,&lt;/div&gt;&lt;div style=&quot;border-color: var(--border-color); text-align: left; font-size: 9.8pt;&quot;&gt;&amp;nbsp; &amp;nbsp; &amp;nbsp;... ,&lt;/div&gt;&lt;div style=&quot;border-color: var(--border-color); text-align: left; font-size: 9.8pt;&quot;&gt;}&lt;/div&gt;" style="whiteSpace=wrap;html=1;" vertex="1" parent="1">
          <mxGeometry x="1570" y="565" width="310" height="80" as="geometry" />
        </mxCell>
        <mxCell id="3D8_AaA1iPGgbqS8_DOt-45" value="" style="endArrow=classic;html=1;rounded=0;exitX=0;exitY=0.5;exitDx=0;exitDy=0;entryX=1;entryY=0.5;entryDx=0;entryDy=0;" edge="1" parent="1" source="3D8_AaA1iPGgbqS8_DOt-44" target="3D8_AaA1iPGgbqS8_DOt-46">
          <mxGeometry width="50" height="50" relative="1" as="geometry">
            <mxPoint x="1540" y="539.5" as="sourcePoint" />
            <mxPoint x="1550" y="604.5" as="targetPoint" />
          </mxGeometry>
        </mxCell>
        <mxCell id="3D8_AaA1iPGgbqS8_DOt-47" value="Marshal" style="edgeLabel;html=1;align=center;verticalAlign=middle;resizable=0;points=[];" vertex="1" connectable="0" parent="3D8_AaA1iPGgbqS8_DOt-45">
          <mxGeometry x="-0.1968" y="-1" relative="1" as="geometry">
            <mxPoint as="offset" />
          </mxGeometry>
        </mxCell>
        <mxCell id="3D8_AaA1iPGgbqS8_DOt-46" value="" style="rounded=0;whiteSpace=wrap;html=1;fillColor=none;dashed=1;dashPattern=1 2;strokeColor=#FF0000;" vertex="1" parent="1">
          <mxGeometry x="1320" y="597.5" width="150" height="15" as="geometry" />
        </mxCell>
        <mxCell id="3D8_AaA1iPGgbqS8_DOt-48" value="AI" style="text;html=1;align=center;verticalAlign=middle;resizable=0;points=[];autosize=1;strokeColor=none;fillColor=none;fontSize=18;" vertex="1" parent="1">
          <mxGeometry x="1570" y="480" width="40" height="40" as="geometry" />
        </mxCell>
        <mxCell id="3D8_AaA1iPGgbqS8_DOt-64" value="" style="rounded=0;whiteSpace=wrap;html=1;fillColor=none;dashed=1;dashPattern=1 2;strokeColor=#FF0000;" vertex="1" parent="1">
          <mxGeometry x="975" y="610.5" width="120" height="15" as="geometry" />
        </mxCell>
        <mxCell id="3D8_AaA1iPGgbqS8_DOt-65" value="" style="endArrow=classic;html=1;rounded=0;exitX=0.219;exitY=1.003;exitDx=0;exitDy=0;exitPerimeter=0;entryX=0.278;entryY=0.007;entryDx=0;entryDy=0;entryPerimeter=0;" edge="1" parent="1" source="3D8_AaA1iPGgbqS8_DOt-64" target="3D8_AaA1iPGgbqS8_DOt-66">
          <mxGeometry width="50" height="50" relative="1" as="geometry">
            <mxPoint x="1090" y="632.5" as="sourcePoint" />
            <mxPoint x="1240" y="682.5" as="targetPoint" />
          </mxGeometry>
        </mxCell>
        <mxCell id="3D8_AaA1iPGgbqS8_DOt-67" value="Unmarshal" style="edgeLabel;html=1;align=center;verticalAlign=middle;resizable=0;points=[];" vertex="1" connectable="0" parent="3D8_AaA1iPGgbqS8_DOt-65">
          <mxGeometry x="0.2095" relative="1" as="geometry">
            <mxPoint as="offset" />
          </mxGeometry>
        </mxCell>
        <mxCell id="3D8_AaA1iPGgbqS8_DOt-66" value="&lt;span style=&quot;border-color: var(--border-color); font-size: 12px;&quot;&gt;map[string]interface{}{&amp;nbsp; &amp;nbsp; &amp;nbsp;//例子&lt;br&gt;&lt;/span&gt;&amp;nbsp; &amp;nbsp; &amp;nbsp; //&lt;font style=&quot;border-color: var(--border-color);&quot;&gt;aiResp传来的原本字段&lt;/font&gt;&lt;br style=&quot;border-color: var(--border-color); font-size: 12px;&quot;&gt;&lt;div style=&quot;border-color: var(--border-color); font-size: 12px;&quot;&gt;&lt;span style=&quot;font-size: 12px;&quot;&gt;&amp;nbsp; &amp;nbsp; &amp;nbsp;&quot;a&quot;:&amp;nbsp; xxx,&amp;nbsp; &amp;nbsp; &amp;nbsp; &amp;nbsp;&amp;nbsp;&lt;/span&gt;&lt;/div&gt;&lt;div style=&quot;border-color: var(--border-color); font-size: 12px;&quot;&gt;&lt;span style=&quot;font-size: 12px;&quot;&gt;&amp;nbsp; &amp;nbsp; &amp;nbsp;&quot;b&quot;:&amp;nbsp; xxx,&amp;nbsp; &amp;nbsp; &amp;nbsp; &amp;nbsp;&amp;nbsp;&lt;/span&gt;&lt;/div&gt;&lt;div style=&quot;border-color: var(--border-color); font-size: 12px;&quot;&gt;&lt;span style=&quot;font-size: 12px;&quot;&gt;&lt;span style=&quot;font-size: 12px;&quot;&gt;&amp;nbsp; &amp;nbsp; &amp;nbsp;&amp;nbsp;&lt;/span&gt;&lt;/span&gt;... ,&amp;nbsp; &amp;nbsp;&lt;br style=&quot;font-size: 12px;&quot;&gt;&lt;/div&gt;&lt;div style=&quot;border-color: var(--border-color); font-size: 12px;&quot;&gt;&lt;span style=&quot;&quot;&gt;&lt;span style=&quot;white-space: pre;&quot;&gt;&amp;nbsp;&amp;nbsp;&amp;nbsp;&amp;nbsp;&lt;/span&gt;&lt;/span&gt;&lt;br style=&quot;font-size: 12px;&quot;&gt;&lt;/div&gt;&lt;div style=&quot;border-color: var(--border-color); font-size: 12px;&quot;&gt;&amp;nbsp; &amp;nbsp; &amp;nbsp; //补充字段, 共6个&lt;/div&gt;&lt;div style=&quot;border-color: var(--border-color); font-size: 12px;&quot;&gt;&lt;div style=&quot;border-color: var(--border-color); font-size: 12px;&quot;&gt;&amp;nbsp; &amp;nbsp; &amp;nbsp; &lt;font color=&quot;#ff0000&quot;&gt;&quot;traceId&quot;:&lt;span style=&quot;border-color: var(--border-color); font-size: 12px;&quot;&gt;&amp;nbsp;&amp;nbsp;&lt;/span&gt;&lt;span style=&quot;border-color: var(--border-color); font-size: 12px;&quot;&gt;utils&lt;/span&gt;&lt;span style=&quot;border-color: var(--border-color); font-size: 12px;&quot;&gt;.&lt;/span&gt;&lt;span style=&quot;border-color: var(--border-color); font-size: 12px;&quot;&gt;ExtractTraceID&lt;/span&gt;&lt;span style=&quot;border-color: var(--border-color); font-size: 12px;&quot;&gt;(ctx)&lt;/span&gt;&lt;/font&gt;&lt;/div&gt;&lt;div style=&quot;border-color: var(--border-color); font-size: 12px;&quot;&gt;&lt;font color=&quot;#ff0000&quot;&gt;&lt;span style=&quot;border-color: var(--border-color); font-size: 12px;&quot;&gt;&amp;nbsp; &amp;nbsp; &amp;nbsp; &quot;qtime&quot; :&lt;/span&gt;&amp;nbsp;inferReq.Timestamp&lt;br style=&quot;border-color: var(--border-color); font-size: 12px;&quot;&gt;&lt;span style=&quot;border-color: var(--border-color); font-size: 12px;&quot;&gt;&amp;nbsp; &amp;nbsp; &amp;nbsp; &quot;feedId&quot;&lt;/span&gt;&amp;nbsp;: inferReq.FeedId&lt;br style=&quot;border-color: var(--border-color); font-size: 12px;&quot;&gt;&lt;span style=&quot;border-color: var(--border-color); font-size: 12px;&quot;&gt;&amp;nbsp; &amp;nbsp; &amp;nbsp; &quot;page&quot;&lt;/span&gt;&amp;nbsp;: inferReq.Page&lt;br style=&quot;border-color: var(--border-color); font-size: 12px;&quot;&gt;&lt;span style=&quot;border-color: var(--border-color); font-size: 12px;&quot;&gt;&amp;nbsp; &amp;nbsp; &amp;nbsp; &quot;oid&quot;&lt;/span&gt;&amp;nbsp;: aiReq.Oid&lt;br style=&quot;border-color: var(--border-color); font-size: 12px;&quot;&gt;&lt;span style=&quot;border-color: var(--border-color); font-size: 12px;&quot;&gt;&amp;nbsp; &amp;nbsp; &amp;nbsp; &quot;otype&quot;&lt;/span&gt;&amp;nbsp;: aiReq.OidType&lt;/font&gt;&lt;/div&gt;&lt;/div&gt;&lt;div style=&quot;border-color: var(--border-color); font-size: 12px;&quot;&gt;}&lt;/div&gt;" style="whiteSpace=wrap;html=1;align=left;fontColor=#000000;labelBackgroundColor=none;fontFamily=Helvetica;fontSize=12;" vertex="1" parent="1">
          <mxGeometry x="939.5" y="682.5" width="223" height="230" as="geometry" />
        </mxCell>
        <mxCell id="3D8_AaA1iPGgbqS8_DOt-68" value="" style="endArrow=classic;html=1;rounded=0;entryX=0.677;entryY=0.965;entryDx=0;entryDy=0;entryPerimeter=0;exitX=0.522;exitY=0.001;exitDx=0;exitDy=0;exitPerimeter=0;" edge="1" parent="1">
          <mxGeometry width="50" height="50" relative="1" as="geometry">
            <mxPoint x="1070.9060000000002" y="682.73" as="sourcePoint" />
            <mxPoint x="1071.24" y="624.9749999999999" as="targetPoint" />
          </mxGeometry>
        </mxCell>
        <mxCell id="3D8_AaA1iPGgbqS8_DOt-69" value="&lt;font style=&quot;font-size: 8px;&quot;&gt;Marshal&lt;/font&gt;" style="edgeLabel;html=1;align=center;verticalAlign=middle;resizable=0;points=[];" vertex="1" connectable="0" parent="3D8_AaA1iPGgbqS8_DOt-68">
          <mxGeometry x="-0.1877" relative="1" as="geometry">
            <mxPoint y="3" as="offset" />
          </mxGeometry>
        </mxCell>
        <mxCell id="3D8_AaA1iPGgbqS8_DOt-70" value="" style="endArrow=classic;html=1;rounded=0;exitX=0;exitY=0.5;exitDx=0;exitDy=0;entryX=1.001;entryY=0.523;entryDx=0;entryDy=0;entryPerimeter=0;" edge="1" parent="1" source="3D8_AaA1iPGgbqS8_DOt-34" target="3D8_AaA1iPGgbqS8_DOt-60">
          <mxGeometry width="50" height="50" relative="1" as="geometry">
            <mxPoint x="1390" y="652.5" as="sourcePoint" />
            <mxPoint x="1440" y="602.5" as="targetPoint" />
          </mxGeometry>
        </mxCell>
        <mxCell id="3D8_AaA1iPGgbqS8_DOt-71" value="aiResp" style="edgeLabel;html=1;align=center;verticalAlign=middle;resizable=0;points=[];" vertex="1" connectable="0" parent="3D8_AaA1iPGgbqS8_DOt-70">
          <mxGeometry x="-0.4058" relative="1" as="geometry">
            <mxPoint x="-14" as="offset" />
          </mxGeometry>
        </mxCell>
        <mxCell id="3D8_AaA1iPGgbqS8_DOt-77" value="请求AI" style="text;strokeColor=none;fillColor=none;align=left;verticalAlign=middle;spacingLeft=4;spacingRight=4;overflow=hidden;points=[[0,0.5],[1,0.5]];portConstraint=eastwest;rotatable=0;whiteSpace=wrap;html=1;" vertex="1" parent="1">
          <mxGeometry x="1020" y="510" width="50" height="30" as="geometry" />
        </mxCell>
        <mxCell id="3D8_AaA1iPGgbqS8_DOt-79" value="&lt;span style=&quot;border-color: var(--border-color); font-size: 12px;&quot;&gt;&lt;br&gt;&lt;br&gt;defer&amp;nbsp;&lt;b&gt;logger&lt;/b&gt;.InitContextFeatureIfBlank&lt;br&gt;&lt;br&gt;//如果没走AI，初始化一个ContextFeature,&lt;br&gt;Marshal成string塞进&lt;b&gt;logger&lt;br&gt;&lt;/b&gt;//有以下4个字段&lt;br&gt;map[string]interface{}{&amp;nbsp;&lt;br&gt;&lt;/span&gt;&lt;br&gt;&lt;div style=&quot;border-color: var(--border-color); font-size: 12px;&quot;&gt;&lt;div style=&quot;border-color: var(--border-color); font-size: 12px;&quot;&gt;&amp;nbsp; &amp;nbsp; &amp;nbsp; &lt;font color=&quot;#ff0000&quot;&gt;&quot;traceId&quot;:&lt;span style=&quot;border-color: var(--border-color); font-size: 12px;&quot;&gt;&amp;nbsp;&amp;nbsp;&lt;/span&gt;&lt;span style=&quot;border-color: var(--border-color); font-size: 12px;&quot;&gt;utils&lt;/span&gt;&lt;span style=&quot;border-color: var(--border-color); font-size: 12px;&quot;&gt;.&lt;/span&gt;&lt;span style=&quot;border-color: var(--border-color); font-size: 12px;&quot;&gt;ExtractTraceID&lt;/span&gt;&lt;span style=&quot;border-color: var(--border-color); font-size: 12px;&quot;&gt;(ctx)&lt;/span&gt;&lt;/font&gt;&lt;/div&gt;&lt;div style=&quot;border-color: var(--border-color); font-size: 12px;&quot;&gt;&lt;font color=&quot;#ff0000&quot;&gt;&lt;span style=&quot;border-color: var(--border-color); font-size: 12px;&quot;&gt;&amp;nbsp; &amp;nbsp; &amp;nbsp; &quot;qtime&quot; :&lt;/span&gt;&amp;nbsp;inferReq.Timestamp&lt;br style=&quot;border-color: var(--border-color); font-size: 12px;&quot;&gt;&lt;span style=&quot;border-color: var(--border-color); font-size: 12px;&quot;&gt;&amp;nbsp; &amp;nbsp; &amp;nbsp; &quot;feedId&quot;&lt;/span&gt;&amp;nbsp;: inferReq.FeedId&lt;br style=&quot;border-color: var(--border-color); font-size: 12px;&quot;&gt;&lt;span style=&quot;border-color: var(--border-color); font-size: 12px;&quot;&gt;&amp;nbsp; &amp;nbsp; &amp;nbsp; &quot;page&quot;&lt;/span&gt;&amp;nbsp;: inferReq.Page&lt;/font&gt;&lt;/div&gt;&lt;/div&gt;&lt;div style=&quot;border-color: var(--border-color); font-size: 12px;&quot;&gt;}&lt;/div&gt;" style="whiteSpace=wrap;html=1;align=left;fontColor=#000000;labelBackgroundColor=none;fontFamily=Helvetica;fontSize=12;" vertex="1" parent="1">
          <mxGeometry x="649.18" y="690" width="235.63" height="210" as="geometry" />
        </mxCell>
        <mxCell id="3D8_AaA1iPGgbqS8_DOt-91" value="" style="edgeStyle=orthogonalEdgeStyle;rounded=0;orthogonalLoop=1;jettySize=auto;html=1;" edge="1" parent="1" source="3D8_AaA1iPGgbqS8_DOt-89" target="3D8_AaA1iPGgbqS8_DOt-79">
          <mxGeometry relative="1" as="geometry" />
        </mxCell>
        <mxCell id="3D8_AaA1iPGgbqS8_DOt-92" value="" style="edgeStyle=orthogonalEdgeStyle;rounded=0;orthogonalLoop=1;jettySize=auto;html=1;" edge="1" parent="1" source="3D8_AaA1iPGgbqS8_DOt-89" target="3D8_AaA1iPGgbqS8_DOt-58">
          <mxGeometry relative="1" as="geometry">
            <Array as="points">
              <mxPoint x="910" y="580" />
              <mxPoint x="910" y="580" />
            </Array>
          </mxGeometry>
        </mxCell>
        <mxCell id="3D8_AaA1iPGgbqS8_DOt-89" value="feed-service" style="rounded=1;whiteSpace=wrap;html=1;fillColor=#ffff88;strokeColor=#36393d;" vertex="1" parent="1">
          <mxGeometry x="707" y="550.5" width="120" height="60" as="geometry" />
        </mxCell>
        <mxCell id="3D8_AaA1iPGgbqS8_DOt-93" value="没请求AI" style="text;strokeColor=none;fillColor=none;align=left;verticalAlign=middle;spacingLeft=4;spacingRight=4;overflow=hidden;points=[[0,0.5],[1,0.5]];portConstraint=eastwest;rotatable=0;whiteSpace=wrap;html=1;" vertex="1" parent="1">
          <mxGeometry x="770" y="630" width="60" height="30" as="geometry" />
        </mxCell>
        <mxCell id="3D8_AaA1iPGgbqS8_DOt-95" value="请求AI" style="text;strokeColor=none;fillColor=none;align=left;verticalAlign=middle;spacingLeft=4;spacingRight=4;overflow=hidden;points=[[0,0.5],[1,0.5]];portConstraint=eastwest;rotatable=0;whiteSpace=wrap;html=1;" vertex="1" parent="1">
          <mxGeometry x="850" y="550.5" width="50" height="30" as="geometry" />
        </mxCell>
      </root>
    </mxGraphModel>
  </diagram>
</mxfile>
